# xmcd CD database file
#
# Track frame offsets:
#	150
#	11692
#	41495
#	69075
#	101290
#	130520
#	171075
#	199925
#	226047
#	253815
#
# Disc length: 3605 seconds
#
# Revision: 0
# Processed by: cddbd v1.5.2PL0 Copyright (c) Steve Scherf et al.
# Submitted via: CDex 1.70beta2
#
DISCID=740e130a
DTITLE=E'nJ - Just Us
DYEAR=2006
DGENRE=Jazz
TTITLE0=PingPong
TTITLE1=Sea Song
TTITLE2=No Strings Attached
TTITLE3=Quintuple Dance
TTITLE4=Speed Bumps Ahead
TTITLE5=Into The Sky
TTITLE6=Just Us
TTITLE7=Sophia
TTITLE8=G-Force
TTITLE9=Dodgers
EXTD=YEAR: 2006
EXTT0=
EXTT1=
EXTT2=
EXTT3=
EXTT4=
EXTT5=
EXTT6=
EXTT7=
EXTT8=
EXTT9=
PLAYORDER=
